<svg width="134.000000" height="66.000000" viewBox="0 0 134 66" fill="none" xmlns="http://www.w3.org/2000/svg" xmlns:xlink="http://www.w3.org/1999/xlink">
	<desc>
			Created with Pixso.
	</desc>
	<defs/>
	<path d="M1.44141 37.0371L1.44141 12.4277L4.5 12.4277L4.5 34.0137L14.6602 34.0137L14.6602 37.0371L1.44141 37.0371ZM16.6289 31.834L16.6289 23.1504C16.6289 22.0488 17.1211 20.9707 18.1055 19.916C19.3242 18.6504 20.8477 18.0176 22.6758 18.0176L22.6758 20.8652C21.293 20.8652 20.332 21.4395 19.793 22.5879C19.6289 22.9395 19.5469 23.291 19.5469 23.6426L19.5469 31.377C19.5469 32.2441 19.9453 32.9824 20.7422 33.5918C21.3047 34.0137 21.9492 34.2246 22.6758 34.2246L22.6758 37.0723C20.4492 37.0723 18.7266 36.1699 17.5078 34.3652C16.9219 33.4746 16.6289 32.6309 16.6289 31.834ZM24.1875 37.0723L24.1875 34.2246C25.4297 34.2246 26.3203 33.6621 26.8594 32.5371C27.0469 32.1621 27.1406 31.7988 27.1406 31.4473L27.1406 23.6426C27.1406 22.6816 26.7305 21.9199 25.9102 21.3574C25.3945 21.0293 24.8086 20.8652 24.1523 20.8652L24.1523 18.0176C26.3086 18.0176 27.9727 18.8965 29.1445 20.6543C29.7305 21.5215 30.0234 22.3535 30.0234 23.1504L30.0234 31.834C30.0234 32.9824 29.5312 34.0957 28.5469 35.1738C27.3984 36.416 25.9453 37.0488 24.1875 37.0723ZM32.168 22.4473L32.168 19.5645L34.4883 19.5645L34.4883 17.5254C34.4883 16.2129 34.9219 15.0176 35.7891 13.9395C36.75 12.8145 37.9922 12.2402 39.5156 12.2168L40.8164 12.2168L40.1484 15.0645L39.4805 15.0645C38.1445 15.1348 37.4648 15.9551 37.4414 17.5254L37.4414 19.5996L39.832 19.5645L39.832 22.4473L37.4414 22.4473L37.4414 37.0371L34.4883 37.0371L34.4883 22.4473L32.168 22.4473ZM41.8008 21.0762L41.8008 18.2285L44.1211 18.2285L44.1211 12.1465L47.1094 12.1465L47.1094 18.2285L49.3594 18.2285L49.3594 21.1113L47.1094 21.1113L47.1094 31.2012C47.1094 32.8652 47.7891 33.791 49.1484 33.9785C49.4062 34.0254 49.6641 34.0488 49.9219 34.0488L50.4141 34.0488L51.082 37.0371L49.8164 37.0371C46.9336 37.0137 45.1641 35.9355 44.5078 33.8027C44.2734 33.0059 44.1562 32.0215 44.1562 30.8496L44.1211 21.0762L41.8008 21.0762ZM52.6641 37.0371L52.6641 12.4277L55.7227 12.4277L55.7227 23.1504L58.8867 23.1504L58.8867 26.1387L55.7227 26.1387L55.7227 37.0371L52.6641 37.0371ZM60.6445 26.1387L60.6445 23.1504L63.7734 23.1504L63.7734 12.4277L66.8672 12.4277L66.8672 37.0371L63.7734 37.0371L63.7734 26.1387L60.6445 26.1387ZM69.6094 31.834L69.6094 23.1504C69.6094 22.0488 70.1016 20.9707 71.0859 19.916C72.3047 18.6504 73.8281 18.0176 75.6562 18.0176L75.6562 20.8652C74.2734 20.8652 73.3125 21.4395 72.7734 22.5879C72.6094 22.9395 72.5273 23.291 72.5273 23.6426L72.5273 31.377C72.5273 32.2441 72.9258 32.9824 73.7227 33.5918C74.2852 34.0137 74.9297 34.2246 75.6562 34.2246L75.6562 37.0723C73.4297 37.0723 71.707 36.1699 70.4883 34.3652C69.9023 33.4746 69.6094 32.6309 69.6094 31.834ZM77.168 37.0723L77.168 34.2246C78.4102 34.2246 79.3008 33.6621 79.8398 32.5371C80.0273 32.1621 80.1211 31.7988 80.1211 31.4473L80.1211 23.6426C80.1211 22.6816 79.7109 21.9199 78.8906 21.3574C78.375 21.0293 77.7891 20.8652 77.1328 20.8652L77.1328 18.0176C79.2891 18.0176 80.9531 18.8965 82.125 20.6543C82.7109 21.5215 83.0039 22.3535 83.0039 23.1504L83.0039 31.834C83.0039 32.9824 82.5117 34.0957 81.5273 35.1738C80.3789 36.416 78.9258 37.0488 77.168 37.0723ZM85.6758 31.9746L85.6758 18.0527L88.6641 18.0527L88.6641 31.623C88.6641 32.4668 89.0859 33.1699 89.9297 33.7324C90.4922 34.084 91.1133 34.2598 91.793 34.2598L91.793 37.2129C89.543 37.2129 87.8086 36.334 86.5898 34.5762C85.9805 33.6855 85.6758 32.8184 85.6758 31.9746ZM93.3398 37.2129L93.3398 34.2598C94.6055 34.2598 95.5312 33.7559 96.1172 32.748C96.3281 32.373 96.4336 31.998 96.4336 31.623L96.4336 18.0527L99.4219 18.0527L99.4219 31.9746C99.4219 33.0762 98.918 34.166 97.9102 35.2441C96.6914 36.5332 95.168 37.1895 93.3398 37.2129ZM101.461 32.0449L104.238 31.5176C104.238 32.5723 104.789 33.4043 105.891 34.0137C106.43 34.2715 106.945 34.4121 107.438 34.4355L107.438 37.2129C105.164 37.2129 103.465 36.3926 102.34 34.752C101.754 33.8848 101.461 32.9824 101.461 32.0449ZM101.637 23.3965C101.637 21.2637 102.609 19.6816 104.555 18.6504C105.492 18.1582 106.43 17.9121 107.367 17.9121L107.367 20.6543C106.289 20.6543 105.457 21.0996 104.871 21.9902C104.566 22.4355 104.414 22.9043 104.414 23.3965C104.414 24.1465 105 24.7559 106.172 25.2246C107.062 25.5996 108.785 26.0918 111.34 26.7012C112.934 27.0293 114.07 27.8145 114.75 29.0566C115.102 29.7129 115.277 30.4512 115.277 31.2715C115.277 33.5215 114.375 35.1855 112.57 36.2637C111.516 36.8965 110.309 37.2129 108.949 37.2129L108.949 34.4355C110.027 34.4355 110.93 34.0605 111.656 33.3105C112.172 32.7715 112.43 32.1387 112.43 31.4121C112.43 30.4746 111.504 29.7246 109.652 29.1621C109.184 29.0215 108.434 28.8223 107.402 28.5645C106.301 28.3066 105.504 28.0957 105.012 27.9316C103.23 27.2285 102.152 26.1621 101.777 24.7324C101.684 24.3105 101.637 23.8652 101.637 23.3965ZM108.914 20.6895L108.914 17.9121C110.93 17.9121 112.559 18.6621 113.801 20.1621C114.574 21.123 114.961 22.1309 114.961 23.1855L112.184 23.6426C112.184 22.3535 111.48 21.4512 110.074 20.9355C109.652 20.7715 109.266 20.6895 108.914 20.6895ZM117.352 31.834L117.352 23.1152C117.375 22.0371 117.891 20.9707 118.898 19.916C120.117 18.6738 121.594 18.041 123.328 18.0176L123.328 20.7949C122.203 20.7949 121.324 21.2871 120.691 22.2715C120.434 22.6934 120.305 23.0801 120.305 23.4316L120.305 25.8223L128.18 25.8223L128.18 23.4316C128.18 22.377 127.641 21.6035 126.562 21.1113C126.07 20.877 125.566 20.7598 125.051 20.7598L125.051 18.0176C126.668 18.0176 128.109 18.5918 129.375 19.7402C130.43 20.748 130.969 21.8613 130.992 23.0801L130.992 28.6699L120.305 28.6699L120.305 31.834C120.305 32.4902 120.68 33.0996 121.43 33.6621C122.039 34.084 122.684 34.2949 123.363 34.2949L123.363 37.0371C121.23 37.0371 119.555 36.1699 118.336 34.4355C117.68 33.5215 117.352 32.6543 117.352 31.834ZM125.051 37.0371L125.051 34.2598C126.457 34.2598 127.512 33.6504 128.215 32.4316C128.355 32.1738 128.461 31.9277 128.531 31.6934L131.027 32.6074C130.605 34.2246 129.645 35.4434 128.145 36.2637C127.184 36.7793 126.152 37.0371 125.051 37.0371Z" fill="#FFFFFF" fill-opacity="1.000000" fill-rule="evenodd"/>
	<path d="M2.892 58.82L0.348 54.716L1.308 54.716L3.612 58.496L5.208 58.496L5.208 54.716L6.132 54.716L6.132 58.496L7.728 58.496L10.02 54.716L10.992 54.716L8.436 58.82L11.304 63.236L10.332 63.236L7.848 59.24L6.132 59.24L6.132 63.236L5.208 63.236L5.208 59.24L3.492 59.24L1.008 63.236L0.036 63.236L2.892 58.82ZM14.7038 61.976L19.9838 54.716L20.6798 54.716L20.6798 63.236L19.8398 63.236L19.8398 56.096L14.6438 63.236L13.8758 63.236L13.8758 54.716L14.7038 54.716L14.7038 61.976ZM26.2123 56.972C26.1163 58.1 25.9923 59.064 25.8403 59.864C25.6963 60.664 25.5123 61.32 25.2883 61.832C25.0723 62.336 24.8083 62.708 24.4963 62.948C24.1923 63.18 23.8323 63.296 23.4163 63.296L23.2723 62.492C23.4323 62.484 23.5843 62.452 23.7283 62.396C23.8803 62.34 24.0243 62.24 24.1603 62.096C24.2963 61.944 24.4243 61.74 24.5443 61.484C24.6643 61.22 24.7763 60.884 24.8803 60.476C24.9843 60.06 25.0763 59.56 25.1563 58.976C25.2443 58.392 25.3203 57.7 25.3843 56.9L25.5643 54.716L29.8963 54.716L29.8963 63.236L29.0683 63.236L29.0683 55.46L26.3323 55.46L26.2123 56.972ZM36.957 63.296C36.365 63.296 35.821 63.176 35.325 62.936C34.837 62.688 34.417 62.364 34.065 61.964C33.713 61.556 33.441 61.092 33.249 60.572C33.057 60.052 32.961 59.52 32.961 58.976C32.961 58.408 33.061 57.864 33.261 57.344C33.469 56.824 33.753 56.364 34.113 55.964C34.473 55.564 34.897 55.248 35.385 55.016C35.873 54.776 36.401 54.656 36.969 54.656C37.561 54.656 38.101 54.784 38.589 55.04C39.085 55.288 39.505 55.616 39.849 56.024C40.201 56.432 40.473 56.896 40.665 57.416C40.857 57.928 40.953 58.452 40.953 58.988C40.953 59.556 40.849 60.1 40.641 60.62C40.441 61.14 40.161 61.6 39.801 62C39.449 62.392 39.029 62.708 38.541 62.948C38.053 63.18 37.525 63.296 36.957 63.296ZM33.801 58.976C33.801 59.44 33.877 59.888 34.029 60.32C34.181 60.744 34.397 61.124 34.677 61.46C34.957 61.788 35.289 62.052 35.673 62.252C36.057 62.444 36.485 62.54 36.957 62.54C37.437 62.54 37.873 62.436 38.265 62.228C38.657 62.02 38.989 61.748 39.261 61.412C39.533 61.076 39.741 60.696 39.885 60.272C40.037 59.848 40.113 59.416 40.113 58.976C40.113 58.512 40.033 58.068 39.873 57.644C39.721 57.212 39.505 56.832 39.225 56.504C38.945 56.176 38.613 55.916 38.229 55.724C37.845 55.524 37.421 55.424 36.957 55.424C36.477 55.424 36.041 55.528 35.649 55.736C35.257 55.936 34.925 56.204 34.653 56.54C34.381 56.876 34.169 57.256 34.017 57.68C33.873 58.104 33.801 58.536 33.801 58.976ZM49.2567 52.244C49.2407 52.628 49.0767 52.936 48.7647 53.168C48.4607 53.392 48.0367 53.504 47.4927 53.504C46.9487 53.504 46.5207 53.392 46.2087 53.168C45.9047 52.936 45.7447 52.628 45.7287 52.244L46.2447 52.244C46.2447 52.348 46.2767 52.448 46.3407 52.544C46.4047 52.64 46.4927 52.724 46.6047 52.796C46.7167 52.868 46.8487 52.928 47.0007 52.976C47.1527 53.016 47.3207 53.036 47.5047 53.036C47.8487 53.036 48.1327 52.964 48.3567 52.82C48.5887 52.668 48.7207 52.476 48.7527 52.244L49.2567 52.244ZM44.8167 61.976L50.0967 54.716L50.7927 54.716L50.7927 63.236L49.9527 63.236L49.9527 56.096L44.7567 63.236L43.9887 63.236L43.9887 54.716L44.8167 54.716L44.8167 61.976ZM59.7319 58.496L61.0279 58.496L63.8119 54.716L64.7719 54.716L61.7839 58.82L65.0839 63.236L64.1239 63.236L61.0999 59.24L59.7319 59.24L59.7319 63.236L58.9039 63.236L58.9039 54.716L59.7319 54.716L59.7319 58.496ZM70.6545 63.296C70.0625 63.296 69.5185 63.176 69.0225 62.936C68.5345 62.688 68.1145 62.364 67.7625 61.964C67.4105 61.556 67.1385 61.092 66.9465 60.572C66.7545 60.052 66.6585 59.52 66.6585 58.976C66.6585 58.408 66.7585 57.864 66.9585 57.344C67.1665 56.824 67.4505 56.364 67.8105 55.964C68.1705 55.564 68.5945 55.248 69.0825 55.016C69.5705 54.776 70.0985 54.656 70.6665 54.656C71.2585 54.656 71.7985 54.784 72.2865 55.04C72.7825 55.288 73.2025 55.616 73.5465 56.024C73.8985 56.432 74.1705 56.896 74.3625 57.416C74.5545 57.928 74.6505 58.452 74.6505 58.988C74.6505 59.556 74.5465 60.1 74.3385 60.62C74.1385 61.14 73.8585 61.6 73.4985 62C73.1465 62.392 72.7265 62.708 72.2385 62.948C71.7505 63.18 71.2225 63.296 70.6545 63.296ZM67.4985 58.976C67.4985 59.44 67.5745 59.888 67.7265 60.32C67.8785 60.744 68.0945 61.124 68.3745 61.46C68.6545 61.788 68.9865 62.052 69.3705 62.252C69.7545 62.444 70.1825 62.54 70.6545 62.54C71.1345 62.54 71.5705 62.436 71.9625 62.228C72.3545 62.02 72.6865 61.748 72.9585 61.412C73.2305 61.076 73.4385 60.696 73.5825 60.272C73.7345 59.848 73.8105 59.416 73.8105 58.976C73.8105 58.512 73.7305 58.068 73.5705 57.644C73.4185 57.212 73.2025 56.832 72.9225 56.504C72.6425 56.176 72.3105 55.916 71.9265 55.724C71.5425 55.524 71.1185 55.424 70.6545 55.424C70.1745 55.424 69.7385 55.528 69.3465 55.736C68.9545 55.936 68.6225 56.204 68.3505 56.54C68.0785 56.876 67.8665 57.256 67.7145 57.68C67.5705 58.104 67.4985 58.536 67.4985 58.976ZM85.2222 63.236L85.2222 56.24L82.1142 61.652L81.6222 61.652L78.5142 56.24L78.5142 63.236L77.6742 63.236L77.6742 54.716L78.5382 54.716L81.8622 60.548L85.2102 54.716L86.0622 54.716L86.0622 63.236L85.2222 63.236ZM89.6848 54.716L96.2608 54.716L96.2608 63.236L95.4208 63.236L95.4208 55.46L90.5128 55.46L90.5128 63.236L89.6848 63.236L89.6848 54.716ZM101.787 56.972C101.691 58.1 101.567 59.064 101.415 59.864C101.271 60.664 101.087 61.32 100.863 61.832C100.647 62.336 100.383 62.708 100.071 62.948C99.767 63.18 99.407 63.296 98.991 63.296L98.847 62.492C99.007 62.484 99.159 62.452 99.303 62.396C99.455 62.34 99.599 62.24 99.735 62.096C99.871 61.944 99.999 61.74 100.119 61.484C100.239 61.22 100.351 60.884 100.455 60.476C100.559 60.06 100.651 59.56 100.731 58.976C100.819 58.392 100.895 57.7 100.959 56.9L101.139 54.716L105.471 54.716L105.471 63.236L104.643 63.236L104.643 55.46L101.907 55.46L101.787 56.972ZM114.824 62.492L114.824 63.236L109.1 63.236L109.1 54.716L114.716 54.716L114.716 55.46L109.94 55.46L109.94 58.532L114.104 58.532L114.104 59.24L109.94 59.24L109.94 62.492L114.824 62.492ZM118.692 58.496L119.988 58.496L122.772 54.716L123.732 54.716L120.744 58.82L124.044 63.236L123.084 63.236L120.06 59.24L118.692 59.24L118.692 63.236L117.864 63.236L117.864 54.716L118.692 54.716L118.692 58.496ZM125.607 58.916C125.607 58.404 125.695 57.896 125.871 57.392C126.055 56.88 126.319 56.424 126.663 56.024C127.007 55.624 127.431 55.3 127.935 55.052C128.439 54.796 129.011 54.668 129.651 54.668C130.411 54.668 131.059 54.84 131.595 55.184C132.139 55.528 132.539 55.976 132.795 56.528L132.135 56.936C131.999 56.656 131.831 56.42 131.631 56.228C131.439 56.036 131.231 55.88 131.007 55.76C130.783 55.64 130.551 55.556 130.311 55.508C130.071 55.452 129.835 55.424 129.603 55.424C129.091 55.424 128.639 55.528 128.247 55.736C127.855 55.944 127.523 56.216 127.251 56.552C126.987 56.888 126.787 57.268 126.651 57.692C126.515 58.108 126.447 58.532 126.447 58.964C126.447 59.436 126.527 59.888 126.687 60.32C126.855 60.752 127.079 61.136 127.359 61.472C127.647 61.8 127.983 62.064 128.367 62.264C128.759 62.456 129.183 62.552 129.639 62.552C129.879 62.552 130.123 62.524 130.371 62.468C130.627 62.404 130.871 62.308 131.103 62.18C131.343 62.044 131.563 61.88 131.763 61.688C131.963 61.488 132.131 61.248 132.267 60.968L132.963 61.328C132.827 61.648 132.635 61.932 132.387 62.18C132.139 62.42 131.863 62.624 131.559 62.792C131.255 62.96 130.931 63.088 130.587 63.176C130.251 63.264 129.919 63.308 129.591 63.308C129.007 63.308 128.471 63.18 127.983 62.924C127.495 62.668 127.075 62.336 126.723 61.928C126.371 61.512 126.095 61.044 125.895 60.524C125.703 59.996 125.607 59.46 125.607 58.916Z" fill="#FFFFFF" fill-opacity="1.000000" fill-rule="evenodd"/>
</svg>
